<svg width="249" height="271" viewBox="0 0 249 271" fill="none" xmlns="http://www.w3.org/2000/svg">
<circle cx="5" cy="5" r="5" fill="#D9D9D9"/>
<circle cx="5.5" cy="31.5" r="5.5" fill="#D9D9D9"/>
<circle cx="5.5" cy="57.5" r="5.5" fill="#D9D9D9"/>
<circle cx="5.5" cy="83.5" r="5.5" fill="#D9D9D9"/>
<circle cx="5.5" cy="109.5" r="5.5" fill="#D9D9D9"/>
<circle cx="5.5" cy="135.5" r="5.5" fill="#D9D9D9"/>
<circle cx="5.5" cy="161.5" r="5.5" fill="#D9D9D9"/>
<circle cx="5.5" cy="187.5" r="5.5" fill="#D9D9D9"/>
<circle cx="5.5" cy="213.5" r="5.5" fill="#D9D9D9"/>
<circle cx="5.5" cy="239.5" r="5.5" fill="#D9D9D9"/>
<circle cx="5.5" cy="265.5" r="5.5" fill="#D9D9D9"/>
<circle cx="35" cy="5" r="5" fill="#D9D9D9"/>
<circle cx="35.5" cy="31.5" r="5.5" fill="#D9D9D9"/>
<circle cx="35.5" cy="57.5" r="5.5" fill="#D9D9D9"/>
<circle cx="35.5" cy="83.5" r="5.5" fill="#D9D9D9"/>
<circle cx="35.5" cy="109.5" r="5.5" fill="#D9D9D9"/>
<circle cx="35.5" cy="135.5" r="5.5" fill="#D9D9D9"/>
<circle cx="35.5" cy="161.5" r="5.5" fill="#D9D9D9"/>
<circle cx="35.5" cy="187.5" r="5.5" fill="#D9D9D9"/>
<circle cx="35.5" cy="213.5" r="5.5" fill="#D9D9D9"/>
<circle cx="35.5" cy="239.5" r="5.5" fill="#D9D9D9"/>
<circle cx="35.5" cy="265.5" r="5.5" fill="#D9D9D9"/>
<circle cx="65" cy="5" r="5" fill="#D9D9D9"/>
<circle cx="65.5" cy="31.5" r="5.5" fill="#D9D9D9"/>
<circle cx="65.5" cy="57.5" r="5.5" fill="#D9D9D9"/>
<circle cx="65.5" cy="83.5" r="5.5" fill="#D9D9D9"/>
<circle cx="65.5" cy="109.5" r="5.5" fill="#D9D9D9"/>
<circle cx="65.5" cy="135.5" r="5.5" fill="#D9D9D9"/>
<circle cx="65.5" cy="161.5" r="5.5" fill="#D9D9D9"/>
<circle cx="65.5" cy="187.5" r="5.5" fill="#D9D9D9"/>
<circle cx="65.5" cy="213.5" r="5.5" fill="#D9D9D9"/>
<circle cx="65.5" cy="239.5" r="5.5" fill="#D9D9D9"/>
<circle cx="65.5" cy="265.5" r="5.5" fill="#D9D9D9"/>
<circle cx="95" cy="5" r="5" fill="#D9D9D9"/>
<circle cx="95.5" cy="31.5" r="5.5" fill="#D9D9D9"/>
<circle cx="95.5" cy="57.5" r="5.5" fill="#D9D9D9"/>
<circle cx="95.5" cy="83.5" r="5.5" fill="#D9D9D9"/>
<circle cx="95.5" cy="109.5" r="5.5" fill="#D9D9D9"/>
<circle cx="95.5" cy="135.5" r="5.5" fill="#D9D9D9"/>
<circle cx="95.5" cy="161.5" r="5.5" fill="#D9D9D9"/>
<circle cx="95.5" cy="187.5" r="5.5" fill="#D9D9D9"/>
<circle cx="95.5" cy="213.5" r="5.5" fill="#D9D9D9"/>
<circle cx="95.5" cy="239.5" r="5.5" fill="#D9D9D9"/>
<circle cx="95.5" cy="265.5" r="5.5" fill="#D9D9D9"/>
<circle cx="125" cy="5" r="5" fill="#D9D9D9"/>
<circle cx="125.5" cy="31.5" r="5.5" fill="#D9D9D9"/>
<circle cx="125.5" cy="57.5" r="5.5" fill="#D9D9D9"/>
<circle cx="125.5" cy="83.5" r="5.5" fill="#D9D9D9"/>
<circle cx="125.5" cy="109.5" r="5.5" fill="#D9D9D9"/>
<circle cx="125.5" cy="135.5" r="5.5" fill="#D9D9D9"/>
<circle cx="125.5" cy="161.5" r="5.5" fill="#D9D9D9"/>
<circle cx="125.5" cy="187.5" r="5.5" fill="#D9D9D9"/>
<circle cx="125.5" cy="213.5" r="5.5" fill="#D9D9D9"/>
<circle cx="125.5" cy="239.5" r="5.5" fill="#D9D9D9"/>
<circle cx="125.5" cy="265.5" r="5.5" fill="#D9D9D9"/>
<circle cx="155" cy="5" r="5" fill="#D9D9D9"/>
<circle cx="155.5" cy="31.5" r="5.5" fill="#D9D9D9"/>
<circle cx="155.5" cy="57.5" r="5.5" fill="#D9D9D9"/>
<circle cx="155.5" cy="83.5" r="5.5" fill="#D9D9D9"/>
<circle cx="155.5" cy="109.5" r="5.5" fill="#D9D9D9"/>
<circle cx="155.5" cy="135.5" r="5.5" fill="#D9D9D9"/>
<circle cx="155.5" cy="161.5" r="5.5" fill="#D9D9D9"/>
<circle cx="155.5" cy="187.5" r="5.5" fill="#D9D9D9"/>
<circle cx="155.5" cy="213.5" r="5.5" fill="#D9D9D9"/>
<circle cx="155.5" cy="239.5" r="5.5" fill="#D9D9D9"/>
<circle cx="155.5" cy="265.5" r="5.5" fill="#D9D9D9"/>
<circle cx="185" cy="5" r="5" fill="#D9D9D9"/>
<circle cx="185.5" cy="31.5" r="5.5" fill="#D9D9D9"/>
<circle cx="185.5" cy="57.5" r="5.5" fill="#D9D9D9"/>
<circle cx="185.5" cy="83.5" r="5.5" fill="#D9D9D9"/>
<circle cx="185.5" cy="109.5" r="5.5" fill="#D9D9D9"/>
<circle cx="185.5" cy="135.5" r="5.5" fill="#D9D9D9"/>
<circle cx="185.5" cy="161.5" r="5.5" fill="#D9D9D9"/>
<circle cx="185.5" cy="187.5" r="5.5" fill="#D9D9D9"/>
<circle cx="185.5" cy="213.5" r="5.5" fill="#D9D9D9"/>
<circle cx="185.5" cy="239.5" r="5.5" fill="#D9D9D9"/>
<circle cx="185.5" cy="265.5" r="5.5" fill="#D9D9D9"/>
<circle cx="215" cy="5" r="5" fill="#D9D9D9"/>
<circle cx="215.5" cy="31.5" r="5.5" fill="#D9D9D9"/>
<circle cx="215.5" cy="57.5" r="5.5" fill="#D9D9D9"/>
<circle cx="215.5" cy="83.5" r="5.5" fill="#D9D9D9"/>
<circle cx="215.5" cy="109.5" r="5.5" fill="#D9D9D9"/>
<circle cx="215.5" cy="135.5" r="5.5" fill="#D9D9D9"/>
<circle cx="215.5" cy="161.5" r="5.5" fill="#D9D9D9"/>
<circle cx="215.5" cy="187.5" r="5.5" fill="#D9D9D9"/>
<circle cx="215.5" cy="213.5" r="5.5" fill="#D9D9D9"/>
<circle cx="215.5" cy="239.5" r="5.5" fill="#D9D9D9"/>
<circle cx="215.5" cy="265.5" r="5.5" fill="#D9D9D9"/>
<circle cx="245" cy="5" r="5" fill="#D9D9D9"/>
<circle cx="245.5" cy="31.5" r="5.5" fill="#D9D9D9"/>
<circle cx="245.5" cy="57.5" r="5.5" fill="#D9D9D9"/>
<circle cx="245.5" cy="83.5" r="5.5" fill="#D9D9D9"/>
<circle cx="245.5" cy="109.5" r="5.5" fill="#D9D9D9"/>
<circle cx="245.5" cy="135.5" r="5.5" fill="#D9D9D9"/>
<circle cx="245.5" cy="161.5" r="5.5" fill="#D9D9D9"/>
<circle cx="245.5" cy="187.5" r="5.5" fill="#D9D9D9"/>
<circle cx="245.5" cy="213.5" r="5.5" fill="#D9D9D9"/>
<circle cx="245.5" cy="239.5" r="5.5" fill="#D9D9D9"/>
<circle cx="245.5" cy="265.5" r="5.5" fill="#D9D9D9"/>
</svg>
