<svg width="121" height="128" viewBox="0 0 121 128" fill="none" xmlns="http://www.w3.org/2000/svg">
<path d="M60.5 0.144531C52.0954 0.144531 44.4031 4.82861 40.5778 12.3054V12.3111L40.5665 12.3224C29.7787 33.2712 20.5129 51.5699 13.7515 65.2303C10.3697 72.0628 7.6133 77.7307 5.59538 82.022C3.57745 86.3134 2.40982 88.7754 1.72599 90.9566L1.72035 90.9735L1.71471 90.9848C0.974616 93.3863 2.88813e-07 96.5984 0 100.387C-1.79052e-05 115.136 12.1168 127.214 26.8826 127.214C43.6209 127.214 55.1144 113.871 60.5 107.709C65.8825 113.867 77.3773 127.214 94.1174 127.214C108.883 127.214 121 115.134 121 100.387C121 96.6037 120.024 93.3967 119.291 91.0073L119.285 90.9904L119.28 90.9735C118.596 88.7953 117.423 86.3264 115.405 82.0333C113.386 77.7402 110.631 72.0698 107.248 65.2359C100.486 51.5738 91.2174 33.2747 80.4279 12.3224L80.4166 12.2998C76.5952 4.82739 68.903 0.144531 60.5 0.144531ZM60.5 11.6963C64.8358 11.6963 68.1927 13.7503 70.1396 17.568L70.1453 17.5793L70.1509 17.5906C80.9255 38.5137 90.1695 56.7748 96.8925 70.3575C100.254 77.1488 102.989 82.7764 104.953 86.9518C106.912 91.1182 108.205 94.2665 108.252 94.4142C108.92 96.5929 109.448 98.7467 109.448 100.387C109.448 108.849 102.634 115.662 94.1174 115.662C83.7721 115.662 72.8852 104.471 67.9342 98.8589L67.9229 98.8476L67.906 98.8307C73.2485 92.1854 82.1595 80.4727 82.1595 67.3906C82.1595 55.7134 72.2692 46.3515 60.5 46.3515C48.7308 46.3515 38.8405 55.7134 38.8405 67.3906C38.8405 80.4919 47.7518 92.1972 53.0884 98.8307L53.0771 98.842L53.0658 98.8589C48.1117 104.474 37.2279 115.662 26.8826 115.662C18.3659 115.662 11.5517 108.853 11.5517 100.387C11.5517 98.7377 12.0771 96.5938 12.7475 94.4142C12.7871 94.2879 14.0903 91.1141 16.0529 86.9405C18.0154 82.767 20.7467 77.1417 24.1075 70.3518C30.829 56.772 40.0718 38.5136 50.8435 17.5962L50.8491 17.585L50.8547 17.5793C52.8082 13.752 56.1642 11.6963 60.5 11.6963ZM60.5 57.9032C66.249 57.9032 70.6078 62.231 70.6078 67.3906C70.6078 73.5678 65.0546 82.8272 60.4944 89.0896C55.9388 82.8384 50.3922 73.5987 50.3922 67.3906C50.3922 62.231 54.751 57.9032 60.5 57.9032Z" fill="white" fill-opacity="0.6"/>
</svg>
