<svg width="129" height="112" viewBox="0 0 129 112" fill="none" xmlns="http://www.w3.org/2000/svg">
<path d="M128.409 1.14787C127.922 0.554462 127.192 0.20874 126.42 0.20874H23.2196C21.9838 0.20874 20.9234 1.08337 20.6886 2.29597L0.0484811 108.077C-0.10116 108.833 0.100081 109.617 0.590284 110.21C1.07791 110.804 1.80805 111.149 2.57948 111.149H105.78C107.016 111.149 108.076 110.275 108.311 109.062L128.951 3.28154C129.101 2.52559 128.902 1.74385 128.409 1.14787ZM105.336 51.4891L82.7199 69.4048L97.862 93.7266C98.3626 94.5883 97.7434 95.6693 96.7475 95.6693H83.2901C82.836 95.6693 82.4181 95.432 82.1833 95.0424L72.2812 78.538L67.3456 82.857L64.7243 94.658C64.5927 95.2488 64.069 95.6693 63.4653 95.6693H52.8898C52.0642 95.6693 51.4527 94.9056 51.6307 94.1007L59.3398 59.5491H24.4993C23.7898 59.5491 23.2144 58.9789 23.2093 58.2694C23.2015 56.8452 23.2015 54.6213 23.2738 53.6589C24.2723 40.4363 39.4531 36.8991 50.9522 33.9837C55.3485 32.8666 64.4999 31.1689 64.4999 28.5889C64.4999 25.2014 57.7815 23.4289 54.1798 23.4289C44.1281 23.4289 41.9067 28.0419 41.4165 30.1498C41.2797 30.7432 40.7689 31.1689 40.16 31.1689H29.6851C28.8827 31.1689 28.2687 30.4543 28.4003 29.6596C29.4555 23.1993 37.2033 13.1088 54.1798 13.1088C62.1598 13.1088 77.3999 17.3117 77.3999 28.5889C77.3999 38.571 63.4859 41.4477 53.4883 43.9864C47.0486 45.6196 41.6693 47.1289 38.1063 49.229H61.9198H67.0799H73.5299C74.3555 49.229 74.967 49.9927 74.789 50.7977L71.3808 64.7091L89.944 49.5206C90.1736 49.3322 90.4626 49.229 90.7593 49.229H104.488C105.679 49.229 106.234 50.7048 105.336 51.4891Z" fill="white" fill-opacity="0.6"/>
</svg>
