<svg width="141" height="128" viewBox="0 0 141 128" fill="none" xmlns="http://www.w3.org/2000/svg">
<path d="M55.1222 0C55.0767 0 55.0299 0.00216765 54.9845 0.0044419C45.6782 0.716283 38.665 9.34085 38.6605 24.617C38.6605 34.0665 51.5449 56.9201 64.308 78.5505C64.7333 79.2737 65.4138 79.5988 66.0848 79.5988C67.165 79.5988 68.2303 78.7622 68.2258 77.4045C68.087 25.1513 66.3619 17.531 56.9078 1.09271C56.5348 0.442271 55.8476 0 55.1222 0ZM85.8601 0C85.1437 0 84.4653 0.427097 84.0878 1.06161C74.4518 17.2406 72.8948 25.1126 72.7743 77.4045C72.772 78.7645 73.8372 79.5988 74.9152 79.5988C75.5862 79.5988 76.2667 79.2737 76.692 78.5505C89.4551 56.9224 102.34 34.0687 102.34 24.6214C102.335 9.32937 95.3109 0.704911 85.9933 0.0044419C85.9479 0.00216765 85.9033 0 85.8601 0ZM87.1882 4.76616C93.7676 6.20576 97.7887 13.6277 97.791 24.6214C97.791 32.2652 85.7502 53.9839 77.3627 68.4185C77.6561 25.8491 79.4649 18.0023 87.1882 4.76616ZM53.7674 4.7706C61.5067 18.4912 63.3258 26.3951 63.6328 68.4097C55.2477 53.975 43.209 32.2608 43.209 24.617C43.2113 13.6528 47.2153 6.23522 53.7674 4.7706ZM20.8529 20.4683C20.3185 20.4683 19.7793 20.6439 19.3427 21.0146C6.3999 32.0629 11.4157 54.4447 18.9207 62.0089C23.4169 66.4482 39.0774 73.951 55.593 83.8008C56.0001 84.0419 56.4164 84.1473 56.819 84.1473C58.4314 84.1473 59.7642 82.4343 58.8045 80.8514L22.8695 21.5743C22.4351 20.8579 21.6489 20.4683 20.8529 20.4683ZM120.147 20.4683C119.353 20.4683 118.565 20.8579 118.13 21.5743L82.1955 80.8514C81.2358 82.4343 82.5686 84.1473 84.181 84.1473C84.5836 84.1473 84.9999 84.0419 85.407 83.8008C101.925 73.951 117.583 66.4482 122.079 62.0089C129.584 54.4447 134.602 32.0629 121.657 21.0146C121.223 20.6439 120.682 20.4683 120.147 20.4683ZM20.4354 26.336L50.1739 75.3879C46.6579 73.3888 43.265 71.511 40.1174 69.7689C32.0757 65.3159 24.4833 61.1078 22.1499 58.8063C18.8796 55.5109 15.5922 47.4616 15.9402 39.031C16.0971 35.3148 17.0399 30.3319 20.4354 26.336ZM120.565 26.336C123.96 30.3319 124.903 35.3148 125.055 39.031C125.403 47.4616 122.117 55.5139 118.881 58.7752C116.516 61.1108 108.922 65.3159 100.883 69.7689C97.735 71.511 94.3421 73.3888 90.8261 75.3879L120.565 26.336ZM2.34352 61.4048C1.06767 61.4048 -0.102082 62.3848 0.00708238 63.6879C1.94929 86.9672 18.6864 93.2443 30.1987 93.2443H52.2527C54.6065 93.2443 55.4692 90.4209 53.4564 89.3088L3.53839 61.7157C3.15404 61.5019 2.74379 61.4048 2.34352 61.4048ZM138.656 61.4048C138.256 61.4048 137.846 61.5019 137.462 61.7157L87.5436 89.3088C85.5286 90.4209 86.3935 93.2443 88.7473 93.2443H110.801C122.314 93.2443 139.048 86.9672 140.993 63.6879C141.102 62.3848 139.932 61.4048 138.656 61.4048ZM5.1508 67.8011L42.9469 88.6958H30.1987C25.0498 88.6958 8.90786 87.1027 5.1508 67.8011ZM135.849 67.8011C132.092 87.1027 115.95 88.6958 110.801 88.6958H98.0531L135.849 67.8011ZM18.1034 97.7928C16.6842 97.7928 15.6205 99.2462 15.9935 100.724C17.8561 108.107 21.7067 113.713 30.8561 113.713C39.7097 113.713 48.3182 109.034 54.0561 101.684C55.2569 100.147 54.2663 97.7928 52.4037 97.7928H18.1034ZM88.5963 97.7928C86.7337 97.7928 85.7431 100.147 86.9439 101.684C92.6841 109.034 101.29 113.713 110.144 113.713C119.296 113.713 123.144 108.107 125.007 100.724C125.38 99.2462 124.318 97.7928 122.897 97.7928H88.5963ZM21.2394 102.341H47.2911C42.5948 106.674 36.7031 109.164 30.8605 109.164C25.9095 109.164 23.0474 107.206 21.2394 102.341ZM93.7089 102.341H119.761C117.953 107.206 115.095 109.164 110.144 109.164C104.301 109.164 98.4052 106.674 93.7089 102.341ZM57.7029 106.086C57.1284 106.178 56.5922 106.489 56.2237 106.996C55.4869 108.013 55.7114 109.433 56.7257 110.172L60.408 112.846C60.8128 113.138 61.2789 113.277 61.7406 113.277C62.4456 113.277 63.1405 112.952 63.584 112.34C64.3208 111.323 64.0919 109.903 63.0776 109.164L59.3997 106.49C58.8891 106.119 58.2774 105.994 57.7029 106.086ZM83.2927 106.086C82.7184 105.994 82.1109 106.12 81.6003 106.49L77.918 109.164C76.9014 109.903 76.6747 111.323 77.4116 112.34C77.8596 112.952 78.5544 113.277 79.2594 113.277C79.7211 113.277 80.1894 113.138 80.592 112.846L84.2699 110.172C85.2865 109.433 85.5131 108.013 84.7763 106.996C84.4067 106.488 83.8669 106.177 83.2927 106.086ZM51.1244 112.877C50.5499 112.787 49.9404 112.917 49.4321 113.286C48.4155 114.023 48.191 115.441 48.9301 116.458L51.6042 120.14C52.0499 120.752 52.7425 121.077 53.4476 121.077C53.9115 121.077 54.3776 120.935 54.7801 120.642C55.7967 119.905 56.0212 118.483 55.2821 117.466L52.608 113.788C52.2396 113.279 51.699 112.968 51.1244 112.877ZM89.8711 112.877C89.2969 112.968 88.7604 113.28 88.392 113.788L85.7179 117.466C84.9788 118.483 85.2056 119.905 86.2199 120.642C86.6247 120.933 87.0885 121.077 87.5524 121.077C88.2575 121.077 88.9524 120.754 89.3958 120.14L92.0699 116.458C92.809 115.441 92.5822 114.023 91.5679 113.286C91.0585 112.917 90.4454 112.787 89.8711 112.877ZM41.9297 117.062C41.6348 117.036 41.3332 117.071 41.0325 117.168C39.8385 117.557 39.1822 118.839 39.5711 120.033L40.9747 124.36C41.2886 125.317 42.1782 125.928 43.1379 125.928C43.3699 125.928 43.6077 125.89 43.8442 125.817C45.0382 125.428 45.6945 124.146 45.3056 122.952L43.8975 118.625C43.6058 117.73 42.8143 117.138 41.9297 117.062ZM99.0703 117.062C98.1857 117.138 97.3942 117.732 97.1025 118.625L95.6944 122.947C95.3055 124.144 95.9641 125.428 97.1558 125.817C97.3923 125.892 97.6278 125.928 97.8621 125.928C98.8218 125.928 99.7137 125.317 100.025 124.355L101.429 120.033C101.818 118.837 101.159 117.553 99.9676 117.164C99.6668 117.067 99.3652 117.036 99.0703 117.062ZM31.8377 118.261C30.5801 118.261 29.5635 119.278 29.5635 120.535V125.084C29.5635 126.341 30.5801 127.358 31.8377 127.358C33.0954 127.358 34.112 126.341 34.112 125.084V120.535C34.112 119.278 33.0954 118.261 31.8377 118.261ZM109.162 118.261C107.905 118.261 106.888 119.278 106.888 120.535V125.084C106.888 126.341 107.905 127.358 109.162 127.358C110.42 127.358 111.437 126.341 111.437 125.084V120.535C111.437 119.278 110.42 118.261 109.162 118.261Z" fill="white" fill-opacity="0.6"/>
</svg>
