<svg width="111" height="36" viewBox="0 0 111 36" fill="none" xmlns="http://www.w3.org/2000/svg">
<path d="M55.5 0.335205V14.0341H55.2222C53.5572 12.0395 51.4949 11.3512 49.0842 11.3512C44.1585 11.3512 40.4462 14.8708 39.1454 19.4946C36.0235 8.71722 22.2501 9.04182 18.0009 16.954V12.5639H8.49573V7.80792H18.902V0.35553H0V33.8032H8.49573V19.7453H16.9779C16.7177 20.779 16.5782 21.8894 16.5782 23.0515C16.5782 36.3125 34.3721 39.6261 39.1589 27.3467H31.8759C29.3264 31.1381 23.9357 28.9608 23.9357 24.6978H38.766C39.4077 30.2304 43.5144 35.0227 49.1858 35.0227C51.6313 35.0227 53.8724 33.7717 55.2426 31.6488H55.3239V33.8032H92.1319L95.9597 29.2708L99.8282 33.8032H111L101.637 22.8279L110.878 11.9609H100.059L96.2917 16.4662L92.3893 11.9677H71.8004V9.06128H81.5359V0.335205H55.5ZM63.4944 1.95441H79.9709V7.42853H70.2422V13.5801H79.8693V18.6749H70.1406V26.7912H79.8693V32.1569H63.4944V1.95441ZM81.6376 12.53L90.4314 22.8685L81.6376 33.207V24.9349H71.9088V20.5109H81.6376V12.53ZM84.8082 13.5801H91.6983L96.312 18.8917L100.75 13.5801H107.43L99.5504 22.8279L107.531 32.1569H100.506L95.9462 26.8047L91.4205 32.1569H84.8082L92.7213 22.8685L84.8082 13.5801ZM28.2784 16.2901C30.0583 16.3061 31.8052 17.4975 32.2214 19.8198H24.1593C24.6883 17.4333 26.4985 16.2741 28.2784 16.2901ZM50.7643 17.2996C56.4184 17.2996 56.7479 28.6949 50.7643 28.6949C44.7634 28.6949 44.8675 17.2996 50.7643 17.2996Z" fill="white" fill-opacity="0.6"/>
</svg>
