<svg width="111" height="43" viewBox="0 0 111 43" fill="none" xmlns="http://www.w3.org/2000/svg">
<path d="M76.4886 0.759004C74.6676 0.672285 73.1893 0.935151 73.1893 0.935151L87.0643 21.7477L73.1893 42.2146C73.1893 42.2146 79.4317 43.2553 82.2067 40.4803C83.941 38.7459 84.9817 37.0102 90.8785 28.6852C91.9192 26.9508 92.9652 28.6852 92.9652 28.6852C98.1683 35.6227 99.5545 38.399 101.983 40.4803C105.104 42.9084 111 42.2146 111 42.2146L97.125 21.7477L110.654 0.935151C110.654 0.935151 104.758 -0.105473 101.983 2.66953C99.9014 4.75078 97.8215 7.52578 92.9652 14.8102C92.9652 14.8102 91.9192 16.5445 90.8785 14.8102C86.0223 7.87265 83.9424 4.75078 81.8611 2.66953C80.4736 1.28203 78.3097 0.845723 76.4886 0.759004ZM1.4566 0.901277C0.966101 0.878242 0.476953 0.891792 0 0.935151L11.0973 42.5602C11.0973 42.5602 14.566 42.5629 16.3004 41.8691C18.7285 40.8285 19.7705 39.7838 21.158 34.2338C22.5455 29.3775 26.0143 14.4619 26.3611 13.4213C27.0549 10.9932 28.0996 10.9932 28.7933 13.4213C29.1402 14.4619 32.609 29.0307 33.9965 34.2338C35.384 39.7838 36.4192 40.8285 38.8473 41.8691C40.9285 42.9097 44.4027 42.5602 44.4027 42.5602L55.5 0.935151C51.6844 0.588277 47.175 2.66682 46.8281 6.82932L40.934 29.0307L36.0764 10.9959C35.0357 5.79276 32.6049 3.01505 28.0955 3.01505C23.5861 3.01505 21.509 5.44588 20.1215 10.9959L15.2639 29.0307L9.36292 6.82932C8.45237 2.88361 4.89012 1.06252 1.4566 0.901277ZM67.9861 0.935151C67.9861 0.935151 65.2152 0.932441 63.4808 1.62619C61.3996 2.66682 60.7031 4.74942 60.7031 9.95255C60.7031 9.95255 61.7465 8.91192 63.4808 8.21817C68.3371 6.4838 67.9861 3.0164 67.9861 0.935151ZM67.6406 7.87265V8.13687C67.725 7.98593 67.7451 7.87265 67.6406 7.87265ZM67.6406 8.13687C67.4449 8.48699 66.7726 9.12227 65.5607 9.60703C64.5201 10.3008 63.4781 10.649 62.4375 10.9959C60.0094 12.0365 60.3576 13.4213 60.3576 16.89V42.5602C60.3576 42.5602 63.1285 42.9097 64.8629 41.8691C67.291 40.8285 67.6406 39.4369 67.6406 34.2338V8.13687Z" fill="white" fill-opacity="0.6"/>
</svg>
